<svg xmlns="http://www.w3.org/2000/svg" viewBox="0 0 800 500"><defs><linearGradient id="b" x1="0" y1="0" x2="1" y2="1"><stop offset="0" stop-color="#1e1e1e"/><stop offset="1" stop-color="#050505"/></linearGradient><radialGradient id="g" cx=".78" cy=".2" r=".55"><stop offset="0" stop-color="#FF7A00" stop-opacity=".38"/><stop offset="1" stop-color="#FF7A00" stop-opacity="0"/></radialGradient></defs><rect width="800" height="500" fill="url(#b)"/><rect width="800" height="500" fill="url(#g)"/><rect x="70" y="90" width="150" height="90" rx="14" fill="#101010" stroke="#ffffff" stroke-width="3"/><text x="145" y="142" fill="#fff" font-family="sans-serif" font-size="20" font-weight="700" text-anchor="middle">Client</text><line x1="230" y1="135" x2="290" y2="135" stroke="#FF7A00" stroke-width="4" stroke-dasharray="8 6"/><polygon points="290,123 310,135 290,147" fill="#FF7A00"/><rect x="320" y="90" width="150" height="90" rx="14" fill="#101010" stroke="#FF7A00" stroke-width="3"/><text x="395" y="142" fill="#fff" font-family="sans-serif" font-size="20" font-weight="700" text-anchor="middle">Node.js API</text><line x1="480" y1="135" x2="540" y2="135" stroke="#FF7A00" stroke-width="4" stroke-dasharray="8 6"/><polygon points="540,123 560,135 540,147" fill="#FF7A00"/><path d="M570 100v80c0 14 35 24 75 24s75-10 75-24v-80" fill="#101010" stroke="#9a9a9a" stroke-width="3"/><ellipse cx="645" cy="100" rx="75" ry="22" fill="#162016" stroke="#9a9a9a" stroke-width="3"/><text x="645" y="160" fill="#fff" font-family="sans-serif" font-size="20" font-weight="700" text-anchor="middle">MongoDB</text><g fill="#fff" font-family="monospace" font-size="15" opacity=".7"><text x="320" y="240">GET /api/exams</text><text x="320" y="264">POST /api/attendance</text></g></svg>